<svg width="20" height="20" viewBox="0 0 20 20" fill="none" xmlns="http://www.w3.org/2000/svg">
<path d="M8.33334 10.8335C8.69122 11.3119 9.14781 11.7078 9.67214 11.9943C10.1965 12.2807 10.7763 12.4511 11.3722 12.4937C11.9682 12.5364 12.5663 12.4504 13.1261 12.2416C13.6859 12.0328 14.1943 11.706 14.6167 11.2835L17.1167 8.78347C17.8757 7.99762 18.2956 6.94512 18.2862 5.85263C18.2767 4.76014 17.8385 3.71509 17.0659 2.94256C16.2934 2.17002 15.2483 1.73182 14.1558 1.72233C13.0634 1.71283 12.0109 2.13281 11.225 2.8918L9.79168 4.3168" stroke="#AAAAAA" stroke-width="2" stroke-linecap="round" stroke-linejoin="round"/>
<path d="M11.6667 9.16653C11.3088 8.68809 10.8522 8.29221 10.3279 8.00575C9.80356 7.71928 9.22376 7.54893 8.62781 7.50625C8.03185 7.46357 7.43369 7.54956 6.87389 7.75838C6.31409 7.9672 5.80575 8.29397 5.38335 8.71653L2.88335 11.2165C2.12436 12.0024 1.70438 13.0549 1.71387 14.1474C1.72337 15.2399 2.16157 16.2849 2.9341 17.0574C3.70664 17.83 4.75169 18.2682 5.84418 18.2777C6.93666 18.2872 7.98917 17.8672 8.77501 17.1082L10.2 15.6832" stroke="#AAAAAA" stroke-width="2" stroke-linecap="round" stroke-linejoin="round"/>
</svg>
