<svg width="16" height="16" viewBox="0 0 16 16" fill="none" xmlns="http://www.w3.org/2000/svg">
<path d="M5.28512 5.23491C4.39084 5.99478 4.06313 7.38059 4.83531 8.49235C5.5579 9.53271 6.46813 10.4427 7.50825 11.165C8.62004 11.937 10.0058 11.6092 10.7656 10.7149L10.774 10.7188C11.7445 11.1684 12.7753 11.4765 13.8333 11.6336V13.8333L13.8324 13.8333L13.8301 13.8333C7.18459 13.8427 2.15956 8.75927 2.16668 2.16966V2.16667H4.36614L4.36628 2.16764C4.52333 3.22554 4.83134 4.25545 5.28095 5.2259L5.28512 5.23491ZM13.8324 15.5H14.6667C15.1269 15.5 15.5 15.1269 15.5 14.6667V10.9148C15.5 10.5018 15.1975 10.1511 14.789 10.0905L14.0772 9.98482C13.1769 9.85121 12.3004 9.5891 11.4746 9.20654L10.8472 8.91592C10.4836 8.7475 10.0517 8.86166 9.81881 9.18771L9.5348 9.58536C9.28588 9.93386 8.81065 10.0403 8.45887 9.79603C7.58196 9.1871 6.81339 8.41869 6.20419 7.54158C5.95984 7.18979 6.06629 6.71448 6.41486 6.46555L6.81231 6.18172C7.13841 5.94884 7.25259 5.51684 7.08414 5.15325L6.7932 4.52527C6.41062 3.6995 6.14852 2.82312 6.01489 1.92291L5.9092 1.21097C5.84856 0.802466 5.49787 0.5 5.0849 0.5H1.33334C0.873105 0.5 0.500009 0.873096 0.500009 1.33333V2.16786C0.491909 9.67322 6.25853 15.5107 13.8324 15.5Z" fill="#B4B4B4"/>
</svg>
