<svg width="24" height="24" viewBox="0 0 24 24" fill="none" xmlns="http://www.w3.org/2000/svg">
<path d="M19.8568 7.30716C19.7817 6.50573 19.1052 5.8763 18.2844 5.8763H15.0453C15.3306 5.37178 15.4942 4.78988 15.4942 4.17023C15.4942 2.25202 13.9335 0.691406 12.0153 0.691406C10.0971 0.691406 8.5365 2.25202 8.5365 4.17023C8.5365 4.78992 8.70019 5.37183 8.98533 5.8763H5.6108C4.78875 5.8763 4.11136 6.50756 4.03809 7.31081L0 21.6083V21.7298C0 22.6006 0.708469 23.3091 1.57931 23.3091H22.4206C23.2915 23.3091 24 22.6006 24 21.7298V21.6052L19.8568 7.30716ZM12.0153 2.44617C12.9659 2.44617 13.7393 3.21956 13.7393 4.17019C13.7393 5.03691 13.0964 5.75597 12.2625 5.87625H11.768C10.9342 5.75592 10.2912 5.03686 10.2912 4.17019C10.2912 3.21956 11.0646 2.44617 12.0153 2.44617ZM1.83867 21.5543L5.77097 7.63116H11.6601C11.7769 7.64302 11.8954 7.64916 12.0153 7.64916C12.1351 7.64916 12.2536 7.64306 12.3705 7.63116H18.1237L22.1583 21.5543H1.83867Z" fill="#AAAAAA"/>
</svg>
