<svg width="190" height="146" viewBox="0 0 220 146" fill="none" xmlns="http://www.w3.org/2000/svg">
<path d="M60.8547 145.4C49.2547 145.4 38.9214 142.533 29.8547 136.8C20.788 131.067 13.6547 122.8 8.45469 112C3.38802 101.067 0.854688 88.0667 0.854688 73C0.854688 57.9333 3.38802 45 8.45469 34.2C13.6547 23.2667 20.788 14.9333 29.8547 9.19999C38.9214 3.46666 49.2547 0.599998 60.8547 0.599998C72.4547 0.599998 82.788 3.46666 91.8547 9.19999C100.921 14.9333 107.988 23.2667 113.055 34.2C118.255 45 120.855 57.9333 120.855 73C120.855 88.0667 118.255 101.067 113.055 112C107.988 122.8 100.921 131.067 91.8547 136.8C82.788 142.533 72.4547 145.4 60.8547 145.4ZM60.8547 118C69.388 118 76.0547 114.333 80.8547 107C85.788 99.6667 88.2547 88.3333 88.2547 73C88.2547 57.6667 85.788 46.3333 80.8547 39C76.0547 31.6667 69.388 28 60.8547 28C52.4547 28 45.788 31.6667 40.8547 39C36.0547 46.3333 33.6547 57.6667 33.6547 73C33.6547 88.3333 36.0547 99.6667 40.8547 107C45.788 114.333 52.4547 118 60.8547 118ZM189.425 2.99999V143H157.025V29H129.025V2.99999H189.425Z" fill="#F9F9F9"/>
</svg>
