<svg width="190" height="146" viewBox="0 0 248 146" fill="none" xmlns="http://www.w3.org/2000/svg">
<path d="M60.0305 145.4C48.4305 145.4 38.0971 142.533 29.0305 136.8C19.9638 131.067 12.8305 122.8 7.63047 112C2.5638 101.067 0.0304689 88.0667 0.0304689 73C0.0304689 57.9333 2.5638 45 7.63047 34.2C12.8305 23.2667 19.9638 14.9333 29.0305 9.19999C38.0971 3.46666 48.4305 0.599998 60.0305 0.599998C71.6305 0.599998 81.9638 3.46666 91.0305 9.19999C100.097 14.9333 107.164 23.2667 112.23 34.2C117.43 45 120.03 57.9333 120.03 73C120.03 88.0667 117.43 101.067 112.23 112C107.164 122.8 100.097 131.067 91.0305 136.8C81.9638 142.533 71.6305 145.4 60.0305 145.4ZM60.0305 118C68.5638 118 75.2305 114.333 80.0305 107C84.9638 99.6667 87.4305 88.3333 87.4305 73C87.4305 57.6667 84.9638 46.3333 80.0305 39C75.2305 31.6667 68.5638 28 60.0305 28C51.6305 28 44.9638 31.6667 40.0305 39C35.2305 46.3333 32.8305 57.6667 32.8305 73C32.8305 88.3333 35.2305 99.6667 40.0305 107C44.9638 114.333 51.6305 118 60.0305 118ZM239.201 116.6V143H133.401V122L187.401 71C193.134 65.5333 197.001 60.8667 199.001 57C201.001 53 202.001 49.0667 202.001 45.2C202.001 39.6 200.067 35.3333 196.201 32.4C192.467 29.3333 186.934 27.8 179.601 27.8C173.467 27.8 167.934 29 163.001 31.4C158.067 33.6667 153.934 37.1333 150.601 41.8L127.001 26.6C132.467 18.4667 140.001 12.1333 149.601 7.59999C159.201 2.93333 170.201 0.599998 182.601 0.599998C193.001 0.599998 202.067 2.33333 209.801 5.79999C217.667 9.13333 223.734 13.9333 228.001 20.2C232.401 26.3333 234.601 33.6 234.601 42C234.601 49.6 233.001 56.7333 229.801 63.4C226.601 70.0667 220.401 77.6667 211.201 86.2L179.001 116.6H239.201Z" fill="#F9F9F9"/>
</svg>
