<svg width="190" height="146" viewBox="0 0 248 146" fill="none" xmlns="http://www.w3.org/2000/svg">
<path d="M60.2258 145.4C48.6258 145.4 38.2924 142.533 29.2258 136.8C20.1591 131.067 13.0258 122.8 7.82578 112C2.75912 101.067 0.225781 88.0667 0.225781 73C0.225781 57.9333 2.75912 45 7.82578 34.2C13.0258 23.2667 20.1591 14.9333 29.2258 9.19999C38.2924 3.46666 48.6258 0.599998 60.2258 0.599998C71.8258 0.599998 82.1591 3.46666 91.2258 9.19999C100.292 14.9333 107.359 23.2667 112.426 34.2C117.626 45 120.226 57.9333 120.226 73C120.226 88.0667 117.626 101.067 112.426 112C107.359 122.8 100.292 131.067 91.2258 136.8C82.1591 142.533 71.8258 145.4 60.2258 145.4ZM60.2258 118C68.7591 118 75.4258 114.333 80.2258 107C85.1591 99.6667 87.6258 88.3333 87.6258 73C87.6258 57.6667 85.1591 46.3333 80.2258 39C75.4258 31.6667 68.7591 28 60.2258 28C51.8258 28 45.1591 31.6667 40.2258 39C35.4258 46.3333 33.0258 57.6667 33.0258 73C33.0258 88.3333 35.4258 99.6667 40.2258 107C45.1591 114.333 51.8258 118 60.2258 118ZM199.415 60C211.682 62 221.082 66.6 227.615 73.8C234.148 80.8667 237.415 89.6667 237.415 100.2C237.415 108.333 235.282 115.867 231.015 122.8C226.748 129.6 220.215 135.067 211.415 139.2C202.748 143.333 192.082 145.4 179.415 145.4C169.548 145.4 159.815 144.133 150.215 141.6C140.748 138.933 132.682 135.2 126.015 130.4L138.615 105.6C143.948 109.6 150.082 112.733 157.015 115C164.082 117.133 171.282 118.2 178.615 118.2C186.748 118.2 193.148 116.667 197.815 113.6C202.482 110.4 204.815 105.933 204.815 100.2C204.815 88.7333 196.082 83 178.615 83H163.815V61.6L192.615 29H133.015V2.99999H231.015V24L199.415 60Z" fill="#F9F9F9"/>
</svg>
