<svg width="50" height="50" viewBox="0 0 50 50" fill="none" xmlns="http://www.w3.org/2000/svg">
<path d="M43.8997 49.1345C43.5493 49.3554 43.0862 49.2505 42.8653 48.9001L39.2655 43.19C39.0446 42.8396 39.1496 42.3765 39.5 42.1556C39.8504 41.9347 40.3135 42.0397 40.5344 42.3901L43.7342 47.4657L48.8098 44.2659C49.1602 44.045 49.6233 44.15 49.8442 44.5004C50.0651 44.8508 49.9601 45.3139 49.6097 45.5348L43.8997 49.1345ZM0.000223569 0.750169C9.09431 0.750169 22.2697 3.14357 32.1293 10.3316C37.0721 13.935 41.1911 18.7516 43.5239 25.0765C45.8564 31.4009 46.3821 39.1769 44.2311 48.6659L42.7683 48.3343C44.8675 39.0733 44.3308 31.5993 42.1165 25.5956C39.9025 19.5923 35.9903 15.0027 31.2457 11.5437C21.7304 4.60672 8.90591 2.25017 0.000223851 2.25017L0.000223569 0.750169Z" fill="#6383BE"/>
</svg>
