<svg width="15" height="30" viewBox="0 0 15 30" fill="none" xmlns="http://www.w3.org/2000/svg">
<path d="M7.54285 29.2491C7.12935 29.2734 6.77442 28.9579 6.7501 28.5444L6.35367 21.8061C6.32935 21.3926 6.64483 21.0377 7.05833 21.0133C7.47183 20.989 7.82676 21.3045 7.85109 21.718L8.20346 27.7076L14.1931 27.3553C14.6066 27.3309 14.9615 27.6464 14.9859 28.0599C15.0102 28.4734 14.6947 28.8283 14.2812 28.8527L7.54285 29.2491ZM0.577536 0.754793C5.42661 1.26505 8.90542 2.67821 11.2304 4.73548C13.5686 6.80446 14.6729 9.4662 14.8722 12.3229C15.2665 17.9754 12.1323 24.4165 8.05936 28.9987L6.93824 28.0021C10.8655 23.5839 13.7314 17.5247 13.3758 12.4273C13.2001 9.9091 12.2419 7.63345 10.2364 5.85885C8.21766 4.07255 5.07148 2.73596 0.42056 2.24656L0.577536 0.754793Z" fill="#6383BE"/>
</svg>
