<svg width="103" height="26" viewBox="0 0 103 26" fill="none" xmlns="http://www.w3.org/2000/svg">
<mask id="mask0_2_1635" style="mask-type:alpha" maskUnits="userSpaceOnUse" x="0" y="0" width="103" height="26">
<rect width="103" height="26" rx="13" transform="matrix(-1 0 0 1 103 0)" fill="#FE8A2C"/>
</mask>
<g mask="url(#mask0_2_1635)">
<rect width="6" height="36" transform="matrix(-0.965926 -0.258819 -0.258819 0.965926 103 -3.61035)" fill="#84A4E0"/>
<rect width="6" height="36" transform="matrix(-0.965926 -0.258819 -0.258819 0.965926 87.8867 -3.61035)" fill="#84A4E0"/>
<rect width="6" height="36" transform="matrix(-0.965926 -0.258819 -0.258819 0.965926 72.7734 -3.61035)" fill="#84A4E0"/>
<rect width="6" height="36" transform="matrix(-0.965926 -0.258819 -0.258819 0.965926 57.6602 -3.61035)" fill="#84A4E0"/>
<rect width="6" height="36" transform="matrix(-0.965926 -0.258819 -0.258819 0.965926 42.5469 -3.61035)" fill="#84A4E0"/>
<rect width="6" height="36" transform="matrix(-0.965926 -0.258819 -0.258819 0.965926 27.4336 -3.61035)" fill="#84A4E0"/>
<rect width="6" height="36" transform="matrix(-0.965926 -0.258819 -0.258819 0.965926 12.3203 -3.61035)" fill="#84A4E0"/>
</g>
</svg>
