<svg width="30" height="30" viewBox="0 0 30 30" fill="none" xmlns="http://www.w3.org/2000/svg">
<circle cx="15" cy="15" r="15" fill="#DA2D09"/>
<g clip-path="url(#clip0_24_541)">
<path d="M8.6735 7.9917L10.0199 12.0303L14.3468 12.04L10.852 14.5457L12.1798 18.5902L8.6735 16.1002L5.16706 18.5902L6.49483 14.5457L3 12.04L7.32699 12.0303L8.6735 7.9917Z" fill="#FFCE00"/>
<path d="M20.882 6L20.8006 7.32637L22.0576 7.81797L20.7479 8.1517L20.6604 9.47776L19.9325 8.35765L18.6213 8.68559L19.481 7.65963L18.7582 6.53617L20.0175 7.02215L20.882 6Z" fill="#FFCE00"/>
<path d="M24.697 10.6461L24.0461 11.8111L24.9685 12.7832L23.6392 12.5352L22.9828 13.6971L22.8125 12.3789L21.4844 12.1249L22.7082 11.5583L22.5437 10.2393L23.4707 11.2073L24.697 10.6461Z" fill="#FFCE00"/>
<path d="M23.2279 16.2808L23.6463 17.5445L24.9993 17.5502L23.9049 18.3315L24.3173 19.597L23.2227 18.8162L22.1246 19.5926L22.5424 18.3287L21.4512 17.5431L22.8042 17.5428L23.2279 16.2808Z" fill="#FFCE00"/>
<path d="M19.8875 20.52L19.8195 21.8471L21.0816 22.3263L19.7754 22.6729L19.7013 23.9998L18.9619 22.8869L17.6543 23.2278L18.5035 22.1933L17.7694 21.0772L19.0335 21.5507L19.8875 20.52Z" fill="#FFCE00"/>
</g>
<defs>
<clipPath id="clip0_24_541">
<rect width="22" height="18" fill="white" transform="translate(4 6)"/>
</clipPath>
</defs>
</svg>
