<svg width="20" height="20" viewBox="0 0 20 20" fill="none" xmlns="http://www.w3.org/2000/svg">
<circle cx="10" cy="10" r="10" fill="#DA2D09"/>
<g clip-path="url(#clip0_2_517)">
<path d="M5.78233 5.32715L6.6799 8.01953L9.56456 8.02602L7.23468 9.69645L8.11986 12.3928L5.78233 10.7328L3.4447 12.3928L4.32988 9.69645L2 8.02602L4.88466 8.01953L5.78233 5.32715Z" fill="#FFCE00"/>
<path d="M13.2542 4L13.1999 4.88424L14.0379 5.21198L13.1648 5.43446L13.1065 6.31851L12.6212 5.57177L11.7471 5.79039L12.3202 5.10642L11.8383 4.35745L12.6779 4.68144L13.2542 4Z" fill="#FFCE00"/>
<path d="M16.464 7.09743L16.0301 7.87408L16.645 8.52216L15.7588 8.35677L15.3212 9.13139L15.2077 8.25262L14.3223 8.08328L15.1382 7.70555L15.0285 6.82617L15.6465 7.47151L16.464 7.09743Z" fill="#FFCE00"/>
<path d="M15.4853 10.8535L15.7642 11.696L16.6662 11.6998L15.9366 12.2206L16.2116 13.0643L15.4818 12.5438L14.7497 13.0614L15.0283 12.2188L14.3008 11.6951L15.2028 11.6949L15.4853 10.8535Z" fill="#FFCE00"/>
<path d="M13.2583 13.6807L13.213 14.5654L14.0544 14.8848L13.1836 15.1159L13.1342 16.0005L12.6413 15.2586L11.7695 15.4859L12.3357 14.7962L11.8462 14.0521L12.689 14.3678L13.2583 13.6807Z" fill="#FFCE00"/>
</g>
<defs>
<clipPath id="clip0_2_517">
<rect width="14.6667" height="12" fill="white" transform="translate(2 4)"/>
</clipPath>
</defs>
</svg>
