<svg width="206" height="2" viewBox="0 0 206 2" fill="none" xmlns="http://www.w3.org/2000/svg">
<path d="M205 2H206V0H205V2ZM1 0H0V2H1V0ZM1 2H1.98077V0H1V2ZM7.86538 2H9.82692V0H7.86538V2ZM15.7115 2H17.6731V0H15.7115V2ZM23.5577 2H25.5192V0H23.5577V2ZM31.4038 2H33.3654V0H31.4038V2ZM39.25 2H41.2115V0H39.25V2ZM47.0962 2H49.0577V0H47.0962V2ZM54.9423 2H56.9039V0H54.9423V2ZM62.7885 2H64.75V0H62.7885V2ZM70.6346 2H72.5962V0H70.6346V2ZM78.4808 2H80.4423V0H78.4808V2ZM86.3269 2H88.2885V0H86.3269V2ZM94.1731 2H96.1346V0H94.1731V2ZM102.019 2H103.981V0H102.019V2ZM109.865 2H111.827V0H109.865V2ZM117.712 2H119.673V0H117.712V2ZM125.558 2H127.519V0H125.558V2ZM133.404 2H135.365V0H133.404V2ZM141.25 2H143.212V0H141.25V2ZM149.096 2H151.058V0H149.096V2ZM156.942 2H158.904V0H156.942V2ZM164.788 2H166.75V0H164.788V2ZM172.635 2H174.596V0H172.635V2ZM180.481 2H182.442V0H180.481V2ZM188.327 2H190.288V0H188.327V2ZM196.173 2H198.135V0H196.173V2ZM204.019 2H205V0H204.019V2Z" fill="#666666"/>
</svg>
