<svg width="226" height="2" viewBox="0 0 226 2" fill="none" xmlns="http://www.w3.org/2000/svg">
<path d="M225 2H226V0H225V2ZM1 0H0V2H1V0ZM1 2H2V0H1V2ZM8 2H10V0H8V2ZM16 2H18V0H16V2ZM24 2H26V0H24V2ZM32 2H34V0H32V2ZM40 2H42V0H40V2ZM48 2H50V0H48V2ZM56 2H58V0H56V2ZM64 2H66V0H64V2ZM72 2H74V0H72V2ZM80 2H82V0H80V2ZM88 2H90V0H88V2ZM96 2H98V0H96V2ZM104 2H106V0H104V2ZM112 2H114V0H112V2ZM120 2H122V0H120V2ZM128 2H130V0H128V2ZM136 2H138V0H136V2ZM144 2H146V0H144V2ZM152 2H154V0H152V2ZM160 2H162V0H160V2ZM168 2H170V0H168V2ZM176 2H178V0H176V2ZM184 2H186V0H184V2ZM192 2H194V0H192V2ZM200 2H202V0H200V2ZM208 2H210V0H208V2ZM216 2H218V0H216V2ZM224 2H225V0H224V2Z" fill="#D5E5D6"/>
</svg>
