<svg width="133" height="93" viewBox="0 0 133 93" fill="none" xmlns="http://www.w3.org/2000/svg">
<path d="M85.9287 5.51404C85.6603 5.82958 85.6986 6.30291 86.0141 6.57126L91.156 10.9443C91.4715 11.2126 91.9449 11.1744 92.2132 10.8589C92.4816 10.5433 92.4433 10.07 92.1278 9.80164L87.5572 5.91451L91.4444 1.34393C91.7127 1.0284 91.6745 0.555067 91.3589 0.286716C91.0434 0.0183649 90.5701 0.0566134 90.3017 0.372146L85.9287 5.51404ZM0.443099 91.2478C46.4949 94.7517 78.0854 90.9751 98.7829 83.3443C119.49 75.7098 129.386 64.1734 131.798 52.1474C134.203 40.1534 129.112 27.9134 120.357 18.96C111.599 10.0047 99.0781 4.2311 86.4396 5.25237L86.5604 6.7475C98.6719 5.76881 110.776 11.3077 119.284 20.0087C127.794 28.7115 132.609 40.4716 130.327 51.8525C128.051 63.2016 118.666 74.4152 98.264 81.9369C77.8521 89.4624 46.5051 93.2482 0.556901 89.7521L0.443099 91.2478Z" fill="#6383BE"/>
</svg>
