<svg xmlns="http://www.w3.org/2000/svg" viewBox="0 0 985.02051 187.06501"><defs><style>.cls-1{fill:#da2d09;}.cls-2{fill:#111;}.cls-3{fill:#fff;}</style></defs><g id="Слой_2" data-name="Слой 2"><g id="Слой_1-2" data-name="Слой 1"><g id="_2" data-name="2"><path class="cls-1" d="M232.583,94.50958q-.92139,0-2.58741-.05664a13.18088,13.18088,0,0,1-2.5874-.28613l-.00927-18.16993a9.4863,9.4863,0,0,0,1.72509.11426,10.30606,10.30606,0,0,0,4.772-1.03808q2.00976-1.03564,3.21728-4.94629a56.06675,56.06675,0,0,0,1.77637-11.5586q.57055-7.64648.56494-20.75781l-.01318-25.2998,60.94921-.03125.042,80.5-20.69971.01074-.03272-63.48047L258.77,29.52032l.00537,10.67578q.00952,17.91065-1.8252,28.58692-1.83545,10.67871-5.2246,16.41992-3.39039,5.74218-8.27588,7.52148A31.5683,31.5683,0,0,1,232.583,94.50958Z"/><path class="cls-1" d="M356.207,94.4461a48.80183,48.80183,0,0,1-15.06543-2.292,32.72427,32.72427,0,0,1-12.48144-7.29687,34.913,34.913,0,0,1-8.459-12.75977q-3.10986-7.7622-3.11523-18.80176l-.001-2.2998a47.90058,47.90058,0,0,1,3.0957-18.1709A33.52172,33.52172,0,0,1,328.627,20.39923a33.91391,33.91391,0,0,1,12.47364-7.13574,50.49158,50.49158,0,0,1,30.12988-.01563,33.9349,33.9349,0,0,1,12.48144,7.123,33.52632,33.52632,0,0,1,8.459,12.417,47.92,47.92,0,0,1,3.11426,18.168l.001,2.2998q.00586,11.03907-3.09472,18.80469a34.909,34.909,0,0,1-8.44629,12.76856,32.72848,32.72848,0,0,1-12.47364,7.30957A48.80632,48.80632,0,0,1,356.207,94.4461Zm-.00879-17.25a20.55985,20.55985,0,0,0,6.66992-1.09668,13.13431,13.13431,0,0,0,5.63282-3.79785,20.19191,20.19191,0,0,0,3.90625-7.30469,38.66045,38.66045,0,0,0,1.48925-11.72949l-.001-2.2998a35.20324,35.20324,0,0,0-1.501-11.09766,19.13432,19.13432,0,0,0-3.91309-7.01367,13.12508,13.12508,0,0,0-5.63769-3.61914,22.016,22.016,0,0,0-13.33984.00683,13.118,13.118,0,0,0-5.63282,3.625,19.09132,19.09132,0,0,0-3.90625,7.01758,35.10345,35.10345,0,0,0-1.48925,11.09864l.001,2.2998a38.58037,38.58037,0,0,0,1.501,11.72852,20.16336,20.16336,0,0,0,3.91406,7.30078,13.1038,13.1038,0,0,0,5.63672,3.792A20.58044,20.58044,0,0,0,356.19824,77.1961Z"/><path class="cls-1" d="M411.93945,12.42267l54.04981-.02832.00879,17.01953-33.34961.01757.03222,63.48047-20.70019.01075Z"/><path class="cls-1" d="M479.78906,12.38751l20.7002-.01074.02441,48.2998,31.60059-48.31543,18.97461-.00976.042,80.5-20.7002.01074-.02539-48.29981L498.80566,92.87774l-18.97558.00977Z"/><path class="cls-1" d="M605.17969,94.31817A48.9034,48.9034,0,0,1,589.999,92.0838a28.81433,28.81433,0,0,1-11.791-7.18067,33.83748,33.83748,0,0,1-7.6543-12.76171q-2.76415-7.81788-2.76953-19.08887l-.001-2.18457a51.34434,51.34434,0,0,1,2.86524-18.17188,32.98774,32.98774,0,0,1,7.92871-12.4248,31.59371,31.59371,0,0,1,11.89941-7.13574,45.75547,45.75547,0,0,1,14.66016-2.30762,51.92717,51.92717,0,0,1,13.16894,1.60351,31.2548,31.2548,0,0,1,10.8125,5.05469,26.32918,26.32918,0,0,1,7.59473,8.96582,33.704,33.704,0,0,1,3.51465,13.45313l-21.39063.01074a17.33057,17.33057,0,0,0-1.84277-5.46094,12.23183,12.23183,0,0,0-3.10742-3.67871,11.7643,11.7643,0,0,0-4.083-2.06738,17.14586,17.14586,0,0,0-4.6582-.63086,16.601,16.601,0,0,0-6.38086,1.21191,12.42029,12.42029,0,0,0-5.0586,3.91114,19.91837,19.91837,0,0,0-3.33105,7.07519,40.18755,40.18755,0,0,0-1.20215,10.58106l.001,2.415a40.66159,40.66159,0,0,0,1.3291,11.21093,21.88,21.88,0,0,0,3.51074,7.3584,12.5534,12.5534,0,0,0,5.0625,4.02246,15.54425,15.54425,0,0,0,6.09473,1.2041q5.86523-.00292,9.37109-2.82226,3.50538-2.81836,4.30762-9.0293l21.39062-.01074a34.02445,34.02445,0,0,1-3.2705,13.57129,25.25391,25.25391,0,0,1-7.47168,8.97461,30.43357,30.43357,0,0,1-10.86426,5.00683A55.29908,55.29908,0,0,1,605.17969,94.31817Z"/><path class="cls-1" d="M672.76562,29.30841,648.04,29.3211l-.00781-17.01953,70.15039-.03613.00781,17.01953-24.72559.0127.03321,63.48046-20.69922.01075Z"/><path class="cls-1" d="M731.98144,12.2586l20.7002-.01074.02441,48.29981,31.60059-48.31641,18.97461-.00879.041,80.5-20.69921.00977-.02539-48.29981L750.99805,92.74884l-18.97559.00976Z"/><path class="cls-1" d="M822.83105,12.21173l20.7002-.01074.01562,31.85546,5.75-.00292L873.8916,12.18536l22.54-.01074-31.03223,37.666,32.22266,42.833-24.14941.0127L849.30469,58.658l-5.75.00293.01757,34.04-20.70019.01074Z"/><path class="cls-1" d="M957.64258,77.23321l-26.91016.01367L925.2207,92.66l-19.5498.00977,29.2832-80.51563,20.7002-.00976,29.36621,80.48437-21.84961.01172ZM936.58887,61.37384l15.17968-.00781L944.167,37.45Z"/><path class="cls-2" d="M228.75244,132.13409l22.19971-.01123.00293,5.63965-15.6001.0083.01367,26.16016-6.59961.00293Z"/><path class="cls-2" d="M258.15185,132.11944l6.11963-.00341.00293,5.33984a10.6389,10.6389,0,0,1,4.2876-4.38184,12.81741,12.81741,0,0,1,6.44971-1.62353q6.2395-.00294,9.84179,3.895,3.60132,3.89868,3.606,11.7583l.00049,1.19971a23.9347,23.9347,0,0,1-.95605,7.14062,13.82,13.82,0,0,1-2.72754,5.07129,11.3593,11.3593,0,0,1-4.22852,3.03223,14.29275,14.29275,0,0,1-5.51953,1.02294,13.08414,13.08414,0,0,1-6.24072-1.49707,8.69315,8.69315,0,0,1-4.02246-4.19775l.00879,17.04-6.59961.00342Zm15.31348,26.6919a7.62156,7.62156,0,0,0,5.999-2.5835q2.27784-2.5796,2.2754-7.9209l-.00049-1.1997q-.0022-5.04054-2.22364-7.46924a7.79991,7.79991,0,0,0-6.061-2.42676,9.84089,9.84089,0,0,0-3.24024.5415,8.57447,8.57447,0,0,0-2.78857,1.5918,7.46135,7.46135,0,0,0-1.94873,2.64063,8.71208,8.71208,0,0,0-.71826,3.63086l.002,4.1997a10.00055,10.00055,0,0,0,.72217,3.95947,8.36793,8.36793,0,0,0,1.92139,2.81934,7.533,7.533,0,0,0,2.76123,1.67822A10.00092,10.00092,0,0,0,273.46533,158.81134Z"/><path class="cls-2" d="M300.77441,176.55743a9.1452,9.1452,0,0,1-1.7998-.1792l-.00293-5.75976a9.18174,9.18174,0,0,0,1.7998.17871,3.95388,3.95388,0,0,0,1.71-.33106,3.35283,3.35283,0,0,0,1.25879-1.14013,12.16989,12.16989,0,0,0,1.13965-2.13086q.56836-1.32056,1.28809-3.30078l-13.51612-31.793,7.19971-.00342,9.73242,24.59473,8.74707-24.604,6.72071-.0039-12.28418,31.80615q-1.31837,3.36034-2.457,5.76123a16.86708,16.86708,0,0,1-2.48731,3.93164,8.51655,8.51655,0,0,1-3.0293,2.25146A10.17714,10.17714,0,0,1,300.77441,176.55743Z"/><path class="cls-2" d="M332.251,132.08136l27.59961-.01416.0166,31.7998-6.59961.00342-.01367-26.16016-14.4004.00733.01368,26.16015-6.59961.00342Z"/><path class="cls-2" d="M370.05078,132.06183l27.59961-.01416.0166,31.7998-6.59961.00342-.01367-26.16016-14.40039.00733.01367,26.16015-6.59961.00342Z"/><path class="cls-2" d="M417.166,164.49786a13.08457,13.08457,0,0,1-4.58984-.74756,9.54088,9.54088,0,0,1-3.3916-2.09863,9.06258,9.06258,0,0,1-2.10156-3.14893,10.57667,10.57667,0,0,1-.72168-3.95947q-.00147-4.73951,2.8164-7.05176,2.81837-2.31006,8.27832-2.314l9.90039-.00537-.001-1.73975q-.00147-3.59985-1.59278-4.94922-1.59081-1.34912-5.00976-1.34765a8.2791,8.2791,0,0,0-4.5.9624,3.67551,3.67551,0,0,0-1.67871,2.64111l-6.41992.00293a8.82357,8.82357,0,0,1,1.04785-3.75049,9.322,9.322,0,0,1,2.57812-2.9707,12.182,12.182,0,0,1,3.98926-1.95264,18.69439,18.69439,0,0,1,5.28027-.69238,19.79789,19.79789,0,0,1,5.30957.65723,10.67392,10.67392,0,0,1,4.05176,2.06787,9.38255,9.38255,0,0,1,2.61133,3.62842,13.79266,13.79266,0,0,1,.93262,5.33984l.00683,12.65967q.00147,2.52025.0625,4.41015a36.41339,36.41339,0,0,0,.30176,3.69l-6,.00293q-.18018-1.3799-.27148-2.33985-.08936-.95874-.09082-2.3999a9.51332,9.51332,0,0,1-3.92774,3.812A13.70143,13.70143,0,0,1,417.166,164.49786Zm1.79688-5.76123a11.3225,11.3225,0,0,0,3.21-.45117,8.127,8.127,0,0,0,2.66992-1.32178,6.58581,6.58581,0,0,0,1.82813-2.16064,6.21575,6.21575,0,0,0,.68945-2.97071l-.001-1.74023-8.70019.00439a6.88941,6.88941,0,0,0-4.04981,1.08252,3.64288,3.64288,0,0,0-1.52832,3.18067,3.96762,3.96762,0,0,0,1.41211,3.17968A6.82042,6.82042,0,0,0,418.96289,158.73663Z"/><path class="cls-2" d="M460.64941,132.01544l6.59961-.00342.00684,12.8999,3.59961-.00146,11.15332-12.90576,7.44043-.00391L475.957,147.18731l14.1084,16.6128-8.04.00439-11.167-13.49414-3.59961.00147.00683,13.5-6.59961.00341Z"/><path class="cls-2" d="M509.86523,164.4505a17.662,17.662,0,0,1-6.15039-1.04737,13.89326,13.89326,0,0,1-4.95117-3.0874,14.266,14.266,0,0,1-3.30273-5.06787,19.06452,19.06452,0,0,1-1.2041-7.0498v-1.19971a17.41139,17.41139,0,0,1,1.19628-6.69092,14.20126,14.20126,0,0,1,3.29786-4.92187,13.79409,13.79409,0,0,1,4.94824-3.03223,19.05382,19.05382,0,0,1,12.2998-.00635,13.79689,13.79689,0,0,1,4.95117,3.02735,14.21812,14.21812,0,0,1,3.30372,4.91845,17.4723,17.4723,0,0,1,1.20312,6.68946v1.1997a19.08137,19.08137,0,0,1-1.19531,7.05127,14.29241,14.29241,0,0,1-3.29785,5.07129,13.91669,13.91669,0,0,1-4.94825,3.09229A17.67913,17.67913,0,0,1,509.86523,164.4505Zm-.00293-5.76026a9.35889,9.35889,0,0,0,3.33008-.602,7.7192,7.7192,0,0,0,2.81934-1.86133,9.286,9.286,0,0,0,1.97851-3.24072,13.59691,13.59691,0,0,0,.74707-4.80078v-1.19971a11.85531,11.85531,0,0,0-.75293-4.43994,8.8185,8.8185,0,0,0-1.98144-3.05859,8.11441,8.11441,0,0,0-2.82129-1.79883,9.54343,9.54343,0,0,0-6.66016.00342,8.08359,8.08359,0,0,0-2.81836,1.80176,8.79885,8.79885,0,0,0-1.97851,3.06054,11.8472,11.8472,0,0,0-.748,4.44092l.001,1.19971a13.58275,13.58275,0,0,0,.752,4.7998,9.24984,9.24984,0,0,0,1.98242,3.23877,7.691,7.691,0,0,0,2.82032,1.8584A9.34173,9.34173,0,0,0,509.8623,158.69024Z"/><path class="cls-2" d="M533.84961,131.97833l7.43945-.00391,10.14942,18.59424,10.13086-18.605,7.08007-.00342.01563,31.79981-6.59961.00342-.01074-21.89991-8.39258,15.3042-4.79981.00244-8.4082-15.29541.01074,21.89991-6.59961.00341Z"/><path class="cls-2" d="M578.84863,131.95489l27.59961-.01416.01563,31.79981-6.59961.00341-.0127-26.16015-14.40039.00732.0127,26.16016-6.59961.00342Z"/><path class="cls-2" d="M625.96484,164.39093a13.09067,13.09067,0,0,1-4.59082-.74756,9.54954,9.54954,0,0,1-3.3916-2.09863,9.07614,9.07614,0,0,1-2.10058-3.14844,10.58152,10.58152,0,0,1-.72266-3.96q-.00147-4.73951,2.81641-7.05176,2.81835-2.31006,8.27929-2.314l9.90039-.00537-.001-1.73974q-.00294-3.59985-1.59278-4.94922-1.59081-1.34913-5.01172-1.34766a8.27536,8.27536,0,0,0-4.499.96241,3.67551,3.67551,0,0,0-1.67871,2.64111l-6.41992.00293A8.85157,8.85157,0,0,1,618,136.88458a9.32517,9.32517,0,0,1,2.5791-2.9707,12.16275,12.16275,0,0,1,3.98926-1.95264,18.67719,18.67719,0,0,1,5.2793-.69238,19.816,19.816,0,0,1,5.31054.65722A10.66987,10.66987,0,0,1,639.209,133.994a9.40485,9.40485,0,0,1,2.61231,3.62842,13.82987,13.82987,0,0,1,.93164,5.33985l.00683,12.65966q.00147,2.52027.0625,4.41016a36.69809,36.69809,0,0,0,.30176,3.68994l-6,.00293q-.18016-1.37988-.27148-2.33935-.08935-.95947-.09082-2.40039a9.50745,9.50745,0,0,1-3.92774,3.812A13.69779,13.69779,0,0,1,625.96484,164.39093Zm1.79688-5.76123a11.31566,11.31566,0,0,0,3.209-.45117,8.12738,8.12738,0,0,0,2.66992-1.32178,6.60042,6.60042,0,0,0,1.82911-2.16065,6.20266,6.20266,0,0,0,.68847-2.9707l-.001-1.74023-8.7002.00439a6.884,6.884,0,0,0-4.04883,1.08252,3.64354,3.64354,0,0,0-1.52929,3.18066,3.97057,3.97057,0,0,0,1.4121,3.17969A6.8235,6.8235,0,0,0,627.76172,158.6297Z"/><path class="cls-2" d="M652.64746,131.91729l6.59961-.00341.00586,12.77978,15-.00781-.00586-12.77979,6.60059-.00341.01562,31.7998-6.60059.00342-.00683-13.37988-15,.00781.00683,13.37988-6.5996.00342Z"/><path class="cls-2" d="M691.04687,131.89776l6.59961-.00341.01075,22.5,15.28906-22.50782,6.30078-.00342.01562,31.79981-6.60058.00342-.01074-22.5L697.3623,163.69415l-6.2998.00342Z"/><path class="cls-2" d="M729.44531,131.87774l6.59961-.00293.01074,22.5,15.28907-22.5083,6.30078-.00293.01562,31.79981-6.60058.00342-.01075-22.5-15.28906,22.50781-6.2998.00293Zm14.09766-3.60693q-4.98046.0022-7.291-2.18652a8.14734,8.14734,0,0,1-2.31347-6.2085l6.12011-.00342a4.57445,4.57445,0,0,0,.87207,3.11914,4.02693,4.02693,0,0,0,5.21973-.00244,4.57976,4.57976,0,0,0,.86816-3.12012l6.12012-.00292a8.086,8.086,0,0,1-2.33691,6.21093Q748.46241,128.26911,743.543,128.27081Z"/><rect class="cls-1" x="0.0325" y="0.0325" width="187" height="187" rx="30"/><path class="cls-3" d="M160.2876,103.86261a5.074,5.074,0,0,0-.61426-2.416L143.69238,76.617a8.36561,8.36561,0,0,0-7.32324-4.31494h-.00537l-18.32129.00928L118.03369,55.845a5.0613,5.0613,0,0,0-5.06152-5.05957h-.00293l-81.14649.0415a5.06215,5.06215,0,0,0-5.05957,5.06446l.03272,63.7583a5.06767,5.06767,0,0,0,5.062,5.05908h.00293l18.25073-.009a13.35245,13.35245,0,0,0,13.21362,11.58563h.00635A13.31671,13.31671,0,0,0,76.54065,124.686l48.092-.02466a13.31657,13.31657,0,0,0,13.214,11.58557h.00732A13.35255,13.35255,0,0,0,151.06189,124.648l4.17444-.00214a5.06778,5.06778,0,0,0,5.05957-5.06494ZM31.85889,121.2088h-.001a1.56385,1.56385,0,0,1-1.562-1.561l-.03272-63.7583a1.56207,1.56207,0,0,1,1.56153-1.5625l81.14648-.0415h.001a1.56123,1.56123,0,0,1,1.56152,1.561l.00983,18.2168h-.00006l.024,47.10315-38.02972.01953a13.35272,13.35272,0,0,0-13.2135-11.58557h-.00635a13.31672,13.31672,0,0,0-13.20911,11.59943Zm38.4292,8.68994a9.77873,9.77873,0,0,1-6.9585,2.88672h-.0044a9.84253,9.84253,0,0,1-.00537-19.68506h.0044a9.84253,9.84253,0,0,1,6.96387,16.79834Zm67.564,2.84814h-.00537a9.84229,9.84229,0,0,1-.00488-19.68457h.00537a9.84229,9.84229,0,0,1,.00488,19.68457Zm17.38232-11.60107-4.17315.00214a13.31657,13.31657,0,0,0-13.214-11.58564h-.00733a13.35353,13.35353,0,0,0-13.20788,11.599l-6.56452.00336-.02307-45.35321,18.32135-.0094h.00293a4.86921,4.86921,0,0,1,4.28174,2.54639l15.97217,24.81689a1.55755,1.55755,0,0,1,.165.69824l.0083,15.71924A1.56416,1.56416,0,0,1,155.23437,121.14581Z"/></g></g></g></svg>