<svg id="Слой_1" data-name="Слой 1" xmlns="http://www.w3.org/2000/svg" viewBox="0 0 2000 371.79"><defs><style>.cls-1{fill:#fd2900;}</style></defs><title>2</title><path class="cls-1" d="M576.2,73.28V223.67H534.09V107H476.94V223.67H435V73.28Z"/><path class="cls-1" d="M712.63,80.05q15,6.77,23.2,19.33T744,128.92q0,17-8.17,29.44t-23.2,19.23q-15,6.76-35.45,6.77H651v39.31H608.43V73.28h68.75Q697.58,73.28,712.63,80.05Zm-18.26,65.1q6.64-5.7,6.66-16.23t-6.66-16.32q-6.68-5.8-19.77-5.81H651v44.05H674.6Q687.7,150.84,694.37,145.15Z"/><path class="cls-1" d="M859.37,194.45h-63.6L784,223.67h-43.4L807,73.28h41.89l66.61,150.39H871.19Zm-12.46-31.36L827.57,115l-19.33,48.13Z"/><path class="cls-1" d="M932.63,73.28h41.9v88.3l62.09-88.3h40V223.67h-41.89V135.58l-61.88,88.09H932.63ZM971,55.44q-10.63-8.8-10.63-26.21h28.57c.15,5,1.43,8.74,3.87,11.17s6.3,3.66,11.6,3.66,9.24-1.22,11.82-3.66,3.94-6.15,4.08-11.17h28.58q0,17.4-10.75,26.21t-33.73,8.81Q981.62,64.25,971,55.44Z"/><path class="cls-1" d="M1244.38,223.67l-.21-79.71-38.68,64.89h-18.9l-38.68-63.17v78h-39.1V73.28h35l52.85,86.8,51.57-86.8h35l.43,150.39Z"/><path class="cls-1" d="M1482,194.45h-63.59l-11.82,29.22h-43.4l66.39-150.39h41.89l66.61,150.39h-44.26Zm-12.46-31.36L1450.2,115l-19.33,48.13Z"/><path class="cls-1" d="M1667.85,159.65a35.23,35.23,0,0,1,7.09,21.7,34.79,34.79,0,0,1-9.46,24.28q-9.45,10.31-25.56,15.79a109.67,109.67,0,0,1-35.46,5.48,137.17,137.17,0,0,1-31-3.66,132.16,132.16,0,0,1-30.19-11l12.68-29.65a94.94,94.94,0,0,0,21.59,7.84,97.6,97.6,0,0,0,22.24,2.68q14.17,0,23.2-4.62t9-13a10.67,10.67,0,0,0-5.59-9.89q-5.6-3.22-15-3.22h-38.46V131.29h35q8.6,0,13.32-3.44a10.85,10.85,0,0,0,4.73-9.24q0-7.31-7.31-11.28t-18.9-4a80.8,80.8,0,0,0-20,2.68,92.26,92.26,0,0,0-20,7.63l-12.47-32.23q24.06-11.59,52.86-11.6a108.06,108.06,0,0,1,34.27,5.26q15.78,5.27,25.13,15.15a32.94,32.94,0,0,1,9.35,23.42,33.28,33.28,0,0,1-5.48,18.8,37.41,37.41,0,0,1-15.15,13Q1660.76,150.2,1667.85,159.65Z"/><path class="cls-1" d="M1697.92,73.28h41.9v88.3l62.09-88.3h40V223.67H1800V135.58l-61.88,88.09h-40.18Z"/><path class="cls-1" d="M2000,73.28V223.67h-41.9V185.86h-23.2l-24.71,37.81H1865.5l30.51-44q-15-6.66-23-19.23t-8-30q0-17.62,8.17-30.51t23.42-19.77q15.25-6.87,35.66-6.87Zm-92,56.5q0,11.4,6.34,17.3t18.37,5.91h25.35v-46.2h-24.92Q1908,106.79,1908,129.78Z"/><path d="M466.53,285.13h-23l.06,39.19H435V277.83h31.55Z"/><path d="M523.41,279.82a15.3,15.3,0,0,1,6.88,5.71,17.47,17.47,0,0,1,0,17.64,15.23,15.23,0,0,1-6.88,5.74,25.64,25.64,0,0,1-10.52,2h-10.5v13.41h-8.63V277.83h19.13A25.65,25.65,0,0,1,523.41,279.82Zm-2.35,21.39a9.48,9.48,0,0,0,0-13.69q-2.92-2.38-8.57-2.39h-10.1V303.6h10.1Q518.13,303.6,521.06,301.21Z"/><path d="M599.7,277.83l-20.19,37.53a20.24,20.24,0,0,1-6.35,7.47,14,14,0,0,1-8,2.49,17.21,17.21,0,0,1-6.84-1.46l2.12-6.78A15.54,15.54,0,0,0,565,318q4.18,0,6.91-4.32l.73-1.13-18.53-34.67h9.23l13.75,27.3,14.15-27.3Z"/><path d="M666.78,277.83v46.49h-8.5V285.13H634.17v39.19h-8.5V277.83Z"/><path d="M741,277.83v46.49h-8.51V285.13H708.36v39.19h-8.5V277.83Z"/><path d="M804.81,313.56H781.56L777,324.32h-8.91L789,277.83h8.5l21,46.49h-9ZM802,306.79l-8.77-20.33-8.7,20.33Z"/><path d="M900.92,304.73h-8.64v19.59h-8.5V277.83h8.5v19.46h8.9l13.35-19.46h9.17l-15.88,22.51,16.48,24h-9.77Z"/><path d="M958.7,321.9a22.9,22.9,0,0,1-9-8.57,24.73,24.73,0,0,1,0-24.51,22.9,22.9,0,0,1,9-8.57,28.14,28.14,0,0,1,25.64,0,23,23,0,0,1,9,8.54,24.84,24.84,0,0,1,0,24.57,23,23,0,0,1-9,8.54,28.14,28.14,0,0,1-25.64,0Zm21.19-6.58a15,15,0,0,0,5.84-5.84,17.65,17.65,0,0,0,0-16.81,15,15,0,0,0-5.84-5.84,17.81,17.81,0,0,0-16.74,0,15,15,0,0,0-5.84,5.84,17.65,17.65,0,0,0,0,16.81,15,15,0,0,0,5.84,5.84,17.81,17.81,0,0,0,16.74,0Z"/><path d="M1068.76,324.32l-.07-30.82L1053.42,319h-3.86l-15.27-25.11v30.42h-8.17V277.83h7.1l18.4,30.75,18.2-30.75h7l.14,46.49Z"/><path d="M1151.12,277.83v46.49h-8.5V285.13h-24.11v39.19H1110V277.83Z"/><path d="M1215,313.56H1191.7l-4.58,10.76h-8.9l20.92-46.49h8.51l21,46.49h-9Zm-2.85-6.77-8.77-20.33-8.7,20.33Z"/><path d="M1297,277.83v46.49h-8.63V304.4h-24v19.92h-8.63V277.83h8.63V297h24V277.83Z"/><path d="M1330,277.83h8.5v33l25-33h8v46.49H1363V291.38l-25,32.94h-8Z"/><path d="M1404.52,277.83h8.5v33l25-33h8v46.49h-8.5V291.38l-25,32.94h-8Zm11.65-5.58a8.88,8.88,0,0,1-3.08-7.18h6a4.91,4.91,0,0,0,1.59,3.79,6.57,6.57,0,0,0,4.45,1.33,6.89,6.89,0,0,0,4.49-1.33,4.78,4.78,0,0,0,1.69-3.79h6a8.83,8.83,0,0,1-3.16,7.14q-3.09,2.51-9,2.5T1416.17,272.25Z"/><path class="cls-1" d="M285.81,179.12v24.27H197.76v-27C227.11,177.81,256.69,178.72,285.81,179.12Z"/><path class="cls-1" d="M90.3,46.89A15.2,15.2,0,0,0,86.77,60.1l5.94,29.8a15.22,15.22,0,0,0,13.7,12.25c70.64,5.27,142.68,7.94,214.13,7.94,16.75,0,34-.15,51.25-.46v8.89c-85.83,1.64-172.33-.86-257.17-7.45a14.63,14.63,0,0,0-12,4.84,14.93,14.93,0,0,0-3.54,12.79l5.78,30.6a14.79,14.79,0,0,0,13.32,12.08c6.67.53,13.3,1,20.16,1.51v29.4l-20-2.62-1,0c-9.82,0-15.85,11.55-15.85,19.83v21.62c0,8.71,6.94,14.7,10.67,17.91l2.23,1.94H138l-4.78,110.87H33.33A33.37,33.37,0,0,1,0,338.46V33.32A33.36,33.36,0,0,1,33.33,0H338.47a33.36,33.36,0,0,1,33.32,33.32v16c-42.74.73-86,.55-128.54-.56-3.2-.07-6.4-.16-9.62-.26-5.42-.16-11-.33-17.17-.55-7.6-.25-15.61-.56-23.81-.92-5.48-.23-11.16-.49-17.36-.79-24.18-1.17-48.63-2.65-72.65-4.42a14.89,14.89,0,0,0-12.34,5Z"/><path class="cls-1" d="M371.79,178.82v24.57H351.68V179.16C358,179.08,364.66,179,371.79,178.82Z"/><path class="cls-1" d="M343.68,163.39c8.76-.08,18-.23,28.11-.44V134.38c-85.74,1.62-172.13-.86-256.91-7.38l5.41,28.66c8.12.63,16.8,1.26,26.51,1.92l7.39.5v62.25l-35.57-4.63a8.21,8.21,0,0,0-1.3,3.75v21.62c0,.28.24,1.31,3,4h34.19l-5.46,126.73h36.29l-3.69-130.5H371.79v-22h-36V163.46Zm-42,55.85H181.91v-59.5l8.33.43c34.41,1.75,69.25,2.83,103.57,3.19l7.85.09Z"/><path class="cls-1" d="M371.79,65.2V93.77c-87.89,1.57-176.56-.92-263.63-7.4l-5.7-28.65C191.43,64.22,282,66.73,371.79,65.2Z"/><path class="cls-1" d="M371.79,257.14v81.32a33.37,33.37,0,0,1-33.32,33.33H201.22L198,257.14Z"/></svg>