<svg width="48" height="48" viewBox="0 0 48 48" fill="none" xmlns="http://www.w3.org/2000/svg">
<circle cx="24" cy="24" r="24" fill="url(#paint0_linear_26_2)"/>
<path d="M20.5219 30.216C19.4779 30.216 18.5479 29.958 17.7319 29.442C16.9159 28.926 16.2739 28.182 15.8059 27.21C15.3499 26.226 15.1219 25.056 15.1219 23.7C15.1219 22.344 15.3499 21.18 15.8059 20.208C16.2739 19.224 16.9159 18.474 17.7319 17.958C18.5479 17.442 19.4779 17.184 20.5219 17.184C21.5659 17.184 22.4959 17.442 23.3119 17.958C24.1279 18.474 24.7639 19.224 25.2199 20.208C25.6879 21.18 25.9219 22.344 25.9219 23.7C25.9219 25.056 25.6879 26.226 25.2199 27.21C24.7639 28.182 24.1279 28.926 23.3119 29.442C22.4959 29.958 21.5659 30.216 20.5219 30.216ZM20.5219 27.75C21.2899 27.75 21.8899 27.42 22.3219 26.76C22.7659 26.1 22.9879 25.08 22.9879 23.7C22.9879 22.32 22.7659 21.3 22.3219 20.64C21.8899 19.98 21.2899 19.65 20.5219 19.65C19.7659 19.65 19.1659 19.98 18.7219 20.64C18.2899 21.3 18.0739 22.32 18.0739 23.7C18.0739 25.08 18.2899 26.1 18.7219 26.76C19.1659 27.42 19.7659 27.75 20.5219 27.75ZM32.0933 17.4V30H29.1772V19.74H26.6573V17.4H32.0933Z" fill="white"/>
<defs>
<linearGradient id="paint0_linear_26_2" x1="1.43051e-06" y1="48" x2="25.6405" y2="-9.90146" gradientUnits="userSpaceOnUse">
<stop stop-color="#9EB2DA"/>
<stop offset="1" stop-color="#ECF2FF"/>
</linearGradient>
</defs>
</svg>
