<svg width="48" height="48" viewBox="0 0 48 48" fill="none" xmlns="http://www.w3.org/2000/svg">
<circle cx="24" cy="24" r="24" fill="url(#paint0_linear_26_3)"/>
<path d="M19.2377 30.216C18.1937 30.216 17.2637 29.958 16.4477 29.442C15.6317 28.926 14.9897 28.182 14.5217 27.21C14.0657 26.226 13.8377 25.056 13.8377 23.7C13.8377 22.344 14.0657 21.18 14.5217 20.208C14.9897 19.224 15.6317 18.474 16.4477 17.958C17.2637 17.442 18.1937 17.184 19.2377 17.184C20.2817 17.184 21.2117 17.442 22.0277 17.958C22.8437 18.474 23.4797 19.224 23.9357 20.208C24.4037 21.18 24.6377 22.344 24.6377 23.7C24.6377 25.056 24.4037 26.226 23.9357 27.21C23.4797 28.182 22.8437 28.926 22.0277 29.442C21.2117 29.958 20.2817 30.216 19.2377 30.216ZM19.2377 27.75C20.0057 27.75 20.6057 27.42 21.0377 26.76C21.4817 26.1 21.7037 25.08 21.7037 23.7C21.7037 22.32 21.4817 21.3 21.0377 20.64C20.6057 19.98 20.0057 19.65 19.2377 19.65C18.4817 19.65 17.8817 19.98 17.4377 20.64C17.0057 21.3 16.7897 22.32 16.7897 23.7C16.7897 25.08 17.0057 26.1 17.4377 26.76C17.8817 27.42 18.4817 27.75 19.2377 27.75ZM35.3631 27.624V30H25.8411V28.11L30.7011 23.52C31.2171 23.028 31.5651 22.608 31.7451 22.26C31.9251 21.9 32.0151 21.546 32.0151 21.198C32.0151 20.694 31.8411 20.31 31.4931 20.046C31.1571 19.77 30.6591 19.632 29.9991 19.632C29.4471 19.632 28.9491 19.74 28.5051 19.956C28.0611 20.16 27.6891 20.472 27.3891 20.892L25.2651 19.524C25.7571 18.792 26.4351 18.222 27.2991 17.814C28.1631 17.394 29.1531 17.184 30.2691 17.184C31.2051 17.184 32.0211 17.34 32.7171 17.652C33.4251 17.952 33.9711 18.384 34.3551 18.948C34.7511 19.5 34.9491 20.154 34.9491 20.91C34.9491 21.594 34.8051 22.236 34.5171 22.836C34.2291 23.436 33.6711 24.12 32.8431 24.888L29.9451 27.624H35.3631Z" fill="white"/>
<defs>
<linearGradient id="paint0_linear_26_3" x1="1.43051e-06" y1="48" x2="25.6405" y2="-9.90146" gradientUnits="userSpaceOnUse">
<stop stop-color="#9EB2DA"/>
<stop offset="1" stop-color="#ECF2FF"/>
</linearGradient>
</defs>
</svg>
