<svg width="48" height="48" viewBox="0 0 48 48" fill="none" xmlns="http://www.w3.org/2000/svg">
<circle cx="24" cy="24" r="24" fill="url(#paint0_linear_26_4)"/>
<path d="M19.2553 30.216C18.2113 30.216 17.2813 29.958 16.4653 29.442C15.6493 28.926 15.0073 28.182 14.5393 27.21C14.0833 26.226 13.8553 25.056 13.8553 23.7C13.8553 22.344 14.0833 21.18 14.5393 20.208C15.0073 19.224 15.6493 18.474 16.4653 17.958C17.2813 17.442 18.2113 17.184 19.2553 17.184C20.2993 17.184 21.2293 17.442 22.0453 17.958C22.8613 18.474 23.4973 19.224 23.9533 20.208C24.4213 21.18 24.6553 22.344 24.6553 23.7C24.6553 25.056 24.4213 26.226 23.9533 27.21C23.4973 28.182 22.8613 28.926 22.0453 29.442C21.2293 29.958 20.2993 30.216 19.2553 30.216ZM19.2553 27.75C20.0233 27.75 20.6233 27.42 21.0553 26.76C21.4993 26.1 21.7213 25.08 21.7213 23.7C21.7213 22.32 21.4993 21.3 21.0553 20.64C20.6233 19.98 20.0233 19.65 19.2553 19.65C18.4993 19.65 17.8993 19.98 17.4553 20.64C17.0233 21.3 16.8073 22.32 16.8073 23.7C16.8073 25.08 17.0233 26.1 17.4553 26.76C17.8993 27.42 18.4993 27.75 19.2553 27.75ZM31.7823 22.53C32.8863 22.71 33.7323 23.124 34.3203 23.772C34.9083 24.408 35.2023 25.2 35.2023 26.148C35.2023 26.88 35.0103 27.558 34.6263 28.182C34.2423 28.794 33.6543 29.286 32.8623 29.658C32.0823 30.03 31.1223 30.216 29.9823 30.216C29.0943 30.216 28.2183 30.102 27.3543 29.874C26.5023 29.634 25.7763 29.298 25.1763 28.866L26.3103 26.634C26.7903 26.994 27.3423 27.276 27.9663 27.48C28.6023 27.672 29.2503 27.768 29.9103 27.768C30.6423 27.768 31.2183 27.63 31.6383 27.354C32.0583 27.066 32.2683 26.664 32.2683 26.148C32.2683 25.116 31.4823 24.6 29.9103 24.6H28.5783V22.674L31.1703 19.74H25.8063V17.4H34.6263V19.29L31.7823 22.53Z" fill="white"/>
<defs>
<linearGradient id="paint0_linear_26_4" x1="1.43051e-06" y1="48" x2="25.6405" y2="-9.90146" gradientUnits="userSpaceOnUse">
<stop stop-color="#9EB2DA"/>
<stop offset="1" stop-color="#ECF2FF"/>
</linearGradient>
</defs>
</svg>
