<svg width="68" height="72" viewBox="0 0 68 72" fill="none" xmlns="http://www.w3.org/2000/svg">
<g filter="url(#filter0_d_52_4)">
<circle cx="34" cy="34" r="34" fill="url(#paint0_linear_52_4)"/>
</g>
<path d="M26.899 43.312C25.391 43.312 24.0476 42.9393 22.869 42.194C21.6903 41.4487 20.763 40.374 20.087 38.97C19.4283 37.5487 19.099 35.8587 19.099 33.9C19.099 31.9413 19.4283 30.26 20.087 28.856C20.763 27.4347 21.6903 26.3513 22.869 25.606C24.0476 24.8607 25.391 24.488 26.899 24.488C28.407 24.488 29.7503 24.8607 30.929 25.606C32.1076 26.3513 33.0263 27.4347 33.685 28.856C34.361 30.26 34.699 31.9413 34.699 33.9C34.699 35.8587 34.361 37.5487 33.685 38.97C33.0263 40.374 32.1076 41.4487 30.929 42.194C29.7503 42.9393 28.407 43.312 26.899 43.312ZM26.899 39.75C28.0083 39.75 28.875 39.2733 29.499 38.32C30.1403 37.3667 30.461 35.8933 30.461 33.9C30.461 31.9067 30.1403 30.4333 29.499 29.48C28.875 28.5267 28.0083 28.05 26.899 28.05C25.807 28.05 24.9403 28.5267 24.299 29.48C23.675 30.4333 23.363 31.9067 23.363 33.9C23.363 35.8933 23.675 37.3667 24.299 38.32C24.9403 39.2733 25.807 39.75 26.899 39.75ZM50.1911 39.568V43H36.4371V40.27L43.4571 33.64C44.2024 32.9293 44.7051 32.3227 44.9651 31.82C45.2251 31.3 45.3551 30.7887 45.3551 30.286C45.3551 29.558 45.1038 29.0033 44.6011 28.622C44.1158 28.2233 43.3964 28.024 42.4431 28.024C41.6458 28.024 40.9264 28.18 40.2851 28.492C39.6438 28.7867 39.1064 29.2373 38.6731 29.844L35.6051 27.868C36.3158 26.8107 37.2951 25.9873 38.5431 25.398C39.7911 24.7913 41.2211 24.488 42.8331 24.488C44.1851 24.488 45.3638 24.7133 46.3691 25.164C47.3918 25.5973 48.1804 26.2213 48.7351 27.036C49.3071 27.8333 49.5931 28.778 49.5931 29.87C49.5931 30.858 49.3851 31.7853 48.9691 32.652C48.5531 33.5187 47.7471 34.5067 46.5511 35.616L42.3651 39.568H50.1911Z" fill="white"/>
<defs>
<filter id="filter0_d_52_4" x="0" y="0" width="68" height="72" filterUnits="userSpaceOnUse" color-interpolation-filters="sRGB">
<feFlood flood-opacity="0" result="BackgroundImageFix"/>
<feColorMatrix in="SourceAlpha" type="matrix" values="0 0 0 0 0 0 0 0 0 0 0 0 0 0 0 0 0 0 127 0" result="hardAlpha"/>
<feOffset dy="4"/>
<feComposite in2="hardAlpha" operator="out"/>
<feColorMatrix type="matrix" values="0 0 0 0 0.600469 0 0 0 0 0.663989 0 0 0 0 0.7875 0 0 0 1 0"/>
<feBlend mode="normal" in2="BackgroundImageFix" result="effect1_dropShadow_52_4"/>
<feBlend mode="normal" in="SourceGraphic" in2="effect1_dropShadow_52_4" result="shape"/>
</filter>
<linearGradient id="paint0_linear_52_4" x1="2.02656e-06" y1="68" x2="36.324" y2="-14.0271" gradientUnits="userSpaceOnUse">
<stop stop-color="#9EB2DA"/>
<stop offset="1" stop-color="#ECF2FF"/>
</linearGradient>
</defs>
</svg>
