<svg width="68" height="72" viewBox="0 0 68 72" fill="none" xmlns="http://www.w3.org/2000/svg">
<g filter="url(#filter0_d_52_5)">
<circle cx="34" cy="34" r="34" fill="url(#paint0_linear_52_5)"/>
</g>
<path d="M26.9244 43.312C25.4164 43.312 24.073 42.9393 22.8944 42.194C21.7157 41.4487 20.7884 40.374 20.1124 38.97C19.4537 37.5487 19.1244 35.8587 19.1244 33.9C19.1244 31.9413 19.4537 30.26 20.1124 28.856C20.7884 27.4347 21.7157 26.3513 22.8944 25.606C24.073 24.8607 25.4164 24.488 26.9244 24.488C28.4324 24.488 29.7757 24.8607 30.9544 25.606C32.133 26.3513 33.0517 27.4347 33.7104 28.856C34.3864 30.26 34.7244 31.9413 34.7244 33.9C34.7244 35.8587 34.3864 37.5487 33.7104 38.97C33.0517 40.374 32.133 41.4487 30.9544 42.194C29.7757 42.9393 28.4324 43.312 26.9244 43.312ZM26.9244 39.75C28.0337 39.75 28.9004 39.2733 29.5244 38.32C30.1657 37.3667 30.4864 35.8933 30.4864 33.9C30.4864 31.9067 30.1657 30.4333 29.5244 29.48C28.9004 28.5267 28.0337 28.05 26.9244 28.05C25.8324 28.05 24.9657 28.5267 24.3244 29.48C23.7004 30.4333 23.3884 31.9067 23.3884 33.9C23.3884 35.8933 23.7004 37.3667 24.3244 38.32C24.9657 39.2733 25.8324 39.75 26.9244 39.75ZM45.0189 32.21C46.6136 32.47 47.8356 33.068 48.6849 34.004C49.5343 34.9227 49.9589 36.0667 49.9589 37.436C49.9589 38.4933 49.6816 39.4727 49.1269 40.374C48.5723 41.258 47.7229 41.9687 46.5789 42.506C45.4523 43.0433 44.0656 43.312 42.4189 43.312C41.1363 43.312 39.8709 43.1473 38.6229 42.818C37.3923 42.4713 36.3436 41.986 35.4769 41.362L37.1149 38.138C37.8083 38.658 38.6056 39.0653 39.5069 39.36C40.4256 39.6373 41.3616 39.776 42.3149 39.776C43.3723 39.776 44.2043 39.5767 44.8109 39.178C45.4176 38.762 45.7209 38.1813 45.7209 37.436C45.7209 35.9453 44.5856 35.2 42.3149 35.2H40.3909V32.418L44.1349 28.18H36.3869V24.8H49.1269V27.53L45.0189 32.21Z" fill="white"/>
<defs>
<filter id="filter0_d_52_5" x="0" y="0" width="68" height="72" filterUnits="userSpaceOnUse" color-interpolation-filters="sRGB">
<feFlood flood-opacity="0" result="BackgroundImageFix"/>
<feColorMatrix in="SourceAlpha" type="matrix" values="0 0 0 0 0 0 0 0 0 0 0 0 0 0 0 0 0 0 127 0" result="hardAlpha"/>
<feOffset dy="4"/>
<feComposite in2="hardAlpha" operator="out"/>
<feColorMatrix type="matrix" values="0 0 0 0 0.600469 0 0 0 0 0.663989 0 0 0 0 0.7875 0 0 0 1 0"/>
<feBlend mode="normal" in2="BackgroundImageFix" result="effect1_dropShadow_52_5"/>
<feBlend mode="normal" in="SourceGraphic" in2="effect1_dropShadow_52_5" result="shape"/>
</filter>
<linearGradient id="paint0_linear_52_5" x1="2.02656e-06" y1="68" x2="36.324" y2="-14.0271" gradientUnits="userSpaceOnUse">
<stop stop-color="#9EB2DA"/>
<stop offset="1" stop-color="#ECF2FF"/>
</linearGradient>
</defs>
</svg>
