<svg width="10" height="12" viewBox="0 0 10 12" fill="none" xmlns="http://www.w3.org/2000/svg">
<path d="M2.08337 3.66667C2.08337 2.05584 3.38921 0.75 5.00004 0.75C6.61087 0.75 7.91671 2.05584 7.91671 3.66667C7.91671 5.2775 6.61087 6.58333 5.00004 6.58333C3.38921 6.58333 2.08337 5.2775 2.08337 3.66667ZM5.00004 5.41667C5.96654 5.41667 6.75004 4.63316 6.75004 3.66667C6.75004 2.70017 5.96654 1.91667 5.00004 1.91667C4.03354 1.91667 3.25004 2.70017 3.25004 3.66667C3.25004 4.63316 4.03354 5.41667 5.00004 5.41667Z" fill="#B4B4B4"/>
<path d="M1.70021 8.5335C0.825039 9.40867 0.333374 10.5957 0.333374 11.8333H1.50004C1.50004 10.9051 1.86879 10.0148 2.52517 9.35846C3.18154 8.70208 4.07178 8.33333 5.00004 8.33333C5.9283 8.33333 6.81854 8.70208 7.47492 9.35846C8.13129 10.0148 8.50004 10.9051 8.50004 11.8333H9.66671C9.66671 10.5957 9.17504 9.40867 8.29987 8.5335C7.4247 7.65833 6.23772 7.16667 5.00004 7.16667C3.76236 7.16667 2.57538 7.65833 1.70021 8.5335Z" fill="#B4B4B4"/>
</svg>
