<svg width="30" height="30" viewBox="0 0 30 30" fill="none" xmlns="http://www.w3.org/2000/svg">
<circle cx="15" cy="15" r="15" fill="#7FDA6D"/>
<path d="M21.9996 18.5025V20.6142C22.0004 20.8103 21.9602 21.0043 21.8817 21.184C21.8031 21.3636 21.6879 21.5248 21.5435 21.6574C21.399 21.7899 21.2285 21.8908 21.0428 21.9536C20.8571 22.0164 20.6603 22.0397 20.465 22.0221C18.299 21.7867 16.2183 21.0466 14.3902 19.8611C12.6895 18.7803 11.2475 17.3383 10.1667 15.6376C8.9771 13.8012 8.23677 11.7104 8.00571 9.53461C7.98812 9.33995 8.01126 9.14376 8.07364 8.95854C8.13603 8.77331 8.2363 8.60311 8.36807 8.45875C8.49984 8.3144 8.66022 8.19907 8.839 8.1201C9.01779 8.04113 9.21106 8.00025 9.40651 8.00007H11.5183C11.8599 7.99671 12.1911 8.11768 12.4501 8.34043C12.7091 8.56319 12.8783 8.87253 12.9261 9.2108C13.0152 9.88661 13.1805 10.5502 13.4188 11.1888C13.5135 11.4408 13.534 11.7146 13.4779 11.9778C13.4218 12.2411 13.2913 12.4827 13.1021 12.6741L12.2081 13.568C13.2102 15.3303 14.6693 16.7895 16.4316 17.7915L17.3256 16.8976C17.5169 16.7083 17.7586 16.5779 18.0218 16.5217C18.2851 16.4656 18.5589 16.4861 18.8108 16.5808C19.4495 16.8191 20.113 16.9844 20.7888 17.0735C21.1308 17.1218 21.4431 17.294 21.6663 17.5575C21.8895 17.821 22.0081 18.1573 21.9996 18.5025Z" fill="white"/>
</svg>
