<svg width="24" height="24" viewBox="0 0 24 24" fill="none" xmlns="http://www.w3.org/2000/svg">
<path d="M22.1814 17.0947V20.1664C22.1825 20.4515 22.1241 20.7338 22.0099 20.995C21.8956 21.2563 21.7281 21.4908 21.518 21.6836C21.3078 21.8764 21.0598 22.0231 20.7897 22.1145C20.5195 22.2058 20.2333 22.2398 19.9493 22.2141C16.7987 21.8718 13.7723 20.7952 11.1132 19.0708C8.63938 17.4988 6.54197 15.4014 4.96998 12.9275C3.2396 10.2564 2.16275 7.21531 1.82667 4.05051C1.80108 3.76738 1.83473 3.48201 1.92547 3.2126C2.01622 2.94318 2.16206 2.6956 2.35373 2.48564C2.54539 2.27567 2.77868 2.10792 3.03873 1.99305C3.29878 1.87819 3.5799 1.81873 3.86419 1.81846H6.93582C7.43272 1.81357 7.91444 1.98953 8.29119 2.31354C8.66795 2.63755 8.91403 3.0875 8.98358 3.57953C9.11322 4.56252 9.35366 5.52769 9.70029 6.45663C9.83805 6.8231 9.86786 7.22138 9.7862 7.60427C9.70454 7.98717 9.51483 8.33863 9.23955 8.61701L7.93922 9.91733C9.39677 12.4807 11.5192 14.6031 14.0825 16.0606L15.3828 14.7603C15.6612 14.485 16.0127 14.2953 16.3956 14.2136C16.7784 14.132 17.1767 14.1618 17.5432 14.2995C18.4721 14.6462 19.4373 14.8866 20.4203 15.0162C20.9177 15.0864 21.3719 15.3369 21.6966 15.7202C22.0213 16.1034 22.1938 16.5926 22.1814 17.0947Z" stroke="#6383BE" stroke-width="2" stroke-linecap="round" stroke-linejoin="round"/>
</svg>
