<svg width="10" height="10" viewBox="0 0 10 10" fill="none" xmlns="http://www.w3.org/2000/svg">
<path d="M3.37107 3.34095C2.83451 3.79687 2.63788 4.62836 3.10119 5.29541C3.53474 5.91962 4.08088 6.46564 4.70495 6.899C5.37203 7.36222 6.20348 7.16554 6.65936 6.62895L6.66443 6.6313C7.24672 6.90103 7.86519 7.08592 8.5 7.18013V8.49999L8.49945 8.49999L8.49804 8.49999C4.51076 8.50565 1.49574 5.45556 1.50001 1.50179V1.5H2.81968L2.81977 1.50058C2.914 2.13532 3.0988 2.75327 3.36857 3.33554L3.37107 3.34095ZM8.49945 9.49999H9C9.27614 9.49999 9.5 9.27613 9.5 8.99999V6.74886C9.5 6.50107 9.31851 6.29065 9.0734 6.25428L8.64631 6.19089C8.10614 6.11073 7.58027 5.95346 7.08475 5.72392L6.70832 5.54955C6.49019 5.4485 6.23102 5.517 6.09129 5.71263L5.92088 5.95121C5.77153 6.16032 5.48639 6.22418 5.27532 6.07762C4.74918 5.71226 4.28804 5.25121 3.92251 4.72495C3.77591 4.51387 3.83978 4.22869 4.04892 4.07933L4.28739 3.90903C4.48305 3.76931 4.55155 3.5101 4.45048 3.29195L4.27592 2.91516C4.04637 2.4197 3.88911 1.89387 3.80893 1.35374L3.74552 0.92658C3.70913 0.68148 3.49872 0.5 3.25094 0.5H1.00001C0.723863 0.5 0.500005 0.723858 0.500005 1V1.50072C0.495145 6.00393 3.95512 9.50644 8.49945 9.49999Z" fill="#B4B4B4"/>
</svg>
