<svg width="20" height="20" viewBox="0 0 20 20" fill="none" xmlns="http://www.w3.org/2000/svg">
<path d="M15.8333 2.5H4.16667C3.24619 2.5 2.5 3.24619 2.5 4.16667V15.8333C2.5 16.7538 3.24619 17.5 4.16667 17.5H15.8333C16.7538 17.5 17.5 16.7538 17.5 15.8333V4.16667C17.5 3.24619 16.7538 2.5 15.8333 2.5Z" stroke="#1A1A1A" stroke-width="2" stroke-linecap="round" stroke-linejoin="round"/>
<path d="M7.08331 8.3335C7.77367 8.3335 8.33331 7.77385 8.33331 7.0835C8.33331 6.39314 7.77367 5.8335 7.08331 5.8335C6.39296 5.8335 5.83331 6.39314 5.83331 7.0835C5.83331 7.77385 6.39296 8.3335 7.08331 8.3335Z" fill="#1A1A1A" stroke="#1A1A1A" stroke-linecap="round" stroke-linejoin="round"/>
<path d="M17.5 12.5002L13.3334 8.3335L4.16669 17.5002" stroke="#1A1A1A" stroke-width="2" stroke-linecap="round" stroke-linejoin="round"/>
</svg>
