<svg width="30" height="30" viewBox="0 0 30 30" fill="none" xmlns="http://www.w3.org/2000/svg">
<circle cx="15" cy="15" r="15" fill="#2AA1DA"/>
<path fill-rule="evenodd" clip-rule="evenodd" d="M19.0043 20.1075C18.9863 20.3065 18.9082 20.4955 18.7812 20.6505C18.6552 20.8045 18.4853 20.9175 18.2933 20.9745C18.1013 21.0315 17.8973 21.0295 17.7073 20.9695C17.5163 20.9095 17.3483 20.7934 17.2243 20.6364C16.1343 19.7694 14.4343 18.5215 14.4343 18.5215C14.4343 18.5215 13.2042 20.6885 12.9842 20.9105C12.9112 20.9715 12.8273 21.0175 12.7363 21.0435C12.6443 21.0705 12.5492 21.0775 12.4552 21.0655C12.3602 21.0525 12.2703 21.0205 12.1893 20.9705C12.1083 20.9215 12.0382 20.8554 11.9842 20.7774C11.9732 20.7434 11.9593 20.7095 11.9443 20.6775L12.6342 17.2254L17.5542 12.3925L10.8443 16.2214C10.8443 16.2214 7.81424 15.3155 7.36424 15.1385C7.24824 15.0755 7.15224 14.9804 7.08824 14.8644C7.02424 14.7484 6.99324 14.6174 7.00124 14.4854C7.00824 14.3534 7.05326 14.2264 7.12926 14.1184C7.20626 14.0104 7.31225 13.9264 7.43425 13.8764C8.07425 13.5504 19.3642 9.23845 19.7442 9.12745C20.1242 9.01645 21.1242 8.72744 21.0142 9.70044C20.9042 10.6734 19.1143 19.5735 19.0043 20.1075Z" fill="white"/>
</svg>
